<svg width="15" height="9" viewBox="0 0 15 9" fill="none" xmlns="http://www.w3.org/2000/svg">
<path d="M7.51041 6.23271L12.6369 1.10618L12.8137 0.929406L12.9905 1.10618L13.6976 1.81329L13.8744 1.99007L13.6976 2.16684L7.68718 8.17725L7.51041 8.35403L7.33363 8.17725L1.32322 2.16684L1.14645 1.99007L1.32322 1.81329L2.03033 1.10618L2.20711 0.929406L2.38388 1.10618L7.51041 6.23271Z" fill="#515151"/>
<path d="M7.51041 6.23271L12.6369 1.10618L12.8137 0.929406L12.9905 1.10618L13.6976 1.81329L13.8744 1.99007L13.6976 2.16684L7.68718 8.17725L7.51041 8.35403L7.33363 8.17725L1.32322 2.16684L1.14645 1.99007L1.32322 1.81329L2.03033 1.10618L2.20711 0.929406L2.38388 1.10618L7.51041 6.23271Z" fill="#B2B2B2"/>
<path d="M7.51041 6.23271L12.6369 1.10618L12.8137 0.929406L12.9905 1.10618L13.6976 1.81329L13.8744 1.99007L13.6976 2.16684L7.68718 8.17725L7.51041 8.35403L7.33363 8.17725L1.32322 2.16684L1.14645 1.99007L1.32322 1.81329L2.03033 1.10618L2.20711 0.929406L2.38388 1.10618L7.51041 6.23271Z" stroke="#515151" stroke-width="0.5"/>
</svg>
