<svg width="14" height="19" viewBox="0 0 14 19" fill="none" xmlns="http://www.w3.org/2000/svg">
<path fill-rule="evenodd" clip-rule="evenodd" d="M7.01386 0.439941C4.71043 0.439941 2.84313 2.30724 2.84313 4.61067C2.84313 6.9141 4.71043 8.7814 7.01386 8.7814C9.31729 8.7814 11.1846 6.9141 11.1846 4.61067C11.1846 2.30724 9.31729 0.439941 7.01386 0.439941ZM4.1602 4.61067C4.1602 3.03464 5.43783 1.75701 7.01386 1.75701C8.58989 1.75701 9.86752 3.03464 9.86752 4.61067C9.86752 6.18671 8.58989 7.46433 7.01386 7.46433C5.43783 7.46433 4.1602 6.18671 4.1602 4.61067Z" fill="#333333"/>
<path fill-rule="evenodd" clip-rule="evenodd" d="M4.37972 10.0985C2.07628 10.0985 0.208984 11.9658 0.208984 14.2692C0.208984 16.5726 2.07628 18.4399 4.37972 18.4399H9.64801C11.9514 18.4399 13.8187 16.5726 13.8187 14.2692C13.8187 11.9658 11.9514 10.0985 9.64801 10.0985H4.37972ZM1.52606 14.2692C1.52606 12.6932 2.80368 11.4156 4.37972 11.4156H9.64801C11.224 11.4156 12.5017 12.6932 12.5017 14.2692C12.5017 15.8452 11.224 17.1229 9.64801 17.1229H4.37972C2.80368 17.1229 1.52606 15.8452 1.52606 14.2692Z" fill="#333333"/>
</svg>
