<svg width="17" height="16" viewBox="0 0 17 16" fill="none" xmlns="http://www.w3.org/2000/svg">
<path fill-rule="evenodd" clip-rule="evenodd" d="M1.70907 0.293587C1.31849 -0.0968856 0.685245 -0.0968856 0.294669 0.293587C-0.0959078 0.684059 -0.0959078 1.31714 0.294669 1.70761L6.58783 7.9991L0.292932 14.2923C-0.0976439 14.6828 -0.0976443 15.3159 0.292932 15.7063C0.683509 16.0968 1.31676 16.0968 1.70733 15.7063L8.00224 9.41312L14.2971 15.7063C14.6877 16.0968 15.321 16.0968 15.7115 15.7063C16.1021 15.3159 16.1021 14.6828 15.7115 14.2923L9.41664 7.9991L15.7098 1.70761C16.1004 1.31714 16.1004 0.684059 15.7098 0.293587C15.3192 -0.0968855 14.686 -0.0968855 14.2954 0.293587L8.00224 6.58507L1.70907 0.293587Z" fill="white"/>
<path fill-rule="evenodd" clip-rule="evenodd" d="M1.70907 0.293587C1.31849 -0.0968856 0.685245 -0.0968856 0.294669 0.293587C-0.0959078 0.684059 -0.0959078 1.31714 0.294669 1.70761L6.58783 7.9991L0.292932 14.2923C-0.0976439 14.6828 -0.0976443 15.3159 0.292932 15.7063C0.683509 16.0968 1.31676 16.0968 1.70733 15.7063L8.00224 9.41312L14.2971 15.7063C14.6877 16.0968 15.321 16.0968 15.7115 15.7063C16.1021 15.3159 16.1021 14.6828 15.7115 14.2923L9.41664 7.9991L15.7098 1.70761C16.1004 1.31714 16.1004 0.684059 15.7098 0.293587C15.3192 -0.0968855 14.686 -0.0968855 14.2954 0.293587L8.00224 6.58507L1.70907 0.293587Z" fill="#333333"/>
</svg>
