<svg width="20" height="20" viewBox="0 0 20 20" fill="none" xmlns="http://www.w3.org/2000/svg">
<path fill-rule="evenodd" clip-rule="evenodd" d="M12.2507 1.66663C15.0773 1.66663 16.699 3.06579 16.699 5.50329V17.6166C16.699 18.125 16.4373 18.5825 15.9973 18.8383C15.559 19.095 15.0307 19.1 14.5873 18.85L9.62068 16.0441L4.60818 18.8558C4.39151 18.9775 4.15401 19.0391 3.91568 19.0391C3.66985 19.0391 3.42401 18.9733 3.20068 18.8416C2.76151 18.5858 2.49985 18.1283 2.49985 17.6208V5.35079C2.49985 3.00913 4.12235 1.66663 6.95151 1.66663H12.2507ZM12.2507 2.91663H6.95151C4.82735 2.91663 3.74985 3.73496 3.74985 5.35079V17.6208C3.74985 17.6991 3.79485 17.7416 3.83235 17.7633C3.86985 17.7866 3.92901 17.8033 3.99735 17.765L9.31568 14.7816C9.50568 14.6758 9.73818 14.675 9.92901 14.7825L15.2015 17.7608C15.2707 17.8008 15.3298 17.7825 15.3673 17.76C15.4048 17.7375 15.449 17.695 15.449 17.6166L15.4487 5.40833C15.4424 4.6911 15.3036 2.91663 12.2507 2.91663ZM12.6163 7.27371C12.9613 7.27371 13.2413 7.55371 13.2413 7.89871C13.2413 8.24371 12.9613 8.52371 12.6163 8.52371H6.51801C6.17301 8.52371 5.89301 8.24371 5.89301 7.89871C5.89301 7.55371 6.17301 7.27371 6.51801 7.27371H12.6163Z" fill="#333333"/>
<path fill-rule="evenodd" clip-rule="evenodd" d="M12.2507 1.66663C15.0773 1.66663 16.699 3.06579 16.699 5.50329V17.6166C16.699 18.125 16.4373 18.5825 15.9973 18.8383C15.559 19.095 15.0307 19.1 14.5873 18.85L9.62068 16.0441L4.60818 18.8558C4.39151 18.9775 4.15401 19.0391 3.91568 19.0391C3.66985 19.0391 3.42401 18.9733 3.20068 18.8416C2.76151 18.5858 2.49985 18.1283 2.49985 17.6208V5.35079C2.49985 3.00913 4.12235 1.66663 6.95151 1.66663H12.2507ZM12.2507 2.91663H6.95151C4.82735 2.91663 3.74985 3.73496 3.74985 5.35079V17.6208C3.74985 17.6991 3.79485 17.7416 3.83235 17.7633C3.86985 17.7866 3.92901 17.8033 3.99735 17.765L9.31568 14.7816C9.50568 14.6758 9.73818 14.675 9.92901 14.7825L15.2015 17.7608C15.2707 17.8008 15.3298 17.7825 15.3673 17.76C15.4048 17.7375 15.449 17.695 15.449 17.6166L15.4487 5.40833C15.4424 4.6911 15.3036 2.91663 12.2507 2.91663ZM12.6163 7.27371C12.9613 7.27371 13.2413 7.55371 13.2413 7.89871C13.2413 8.24371 12.9613 8.52371 12.6163 8.52371H6.51801C6.17301 8.52371 5.89301 8.24371 5.89301 7.89871C5.89301 7.55371 6.17301 7.27371 6.51801 7.27371H12.6163Z" fill="#FD517E"/>
</svg>
