<svg width="20" height="18" viewBox="0 0 20 18" fill="none" xmlns="http://www.w3.org/2000/svg">
<path d="M8.86274 10.7812C8.52102 10.7812 8.24399 11.0583 8.24399 11.4C8.24399 11.7417 8.52102 12.0187 8.86274 12.0187H13.8127C14.1545 12.0187 14.4315 11.7417 14.4315 11.4C14.4315 11.0583 14.1545 10.7812 13.8127 10.7812H8.86274Z" fill="#333333"/>
<path fill-rule="evenodd" clip-rule="evenodd" d="M2.03802 1.34993C1.95514 1.01841 1.6192 0.816843 1.28768 0.899724C0.956152 0.982605 0.754588 1.31855 0.837468 1.65007L1.70516 5.12082L2.51267 8.49012C2.85603 9.9228 3.1263 11.0505 3.44702 11.9266C3.776 12.8252 4.17943 13.5228 4.8267 14.0578C4.88256 14.104 4.93947 14.1489 4.99739 14.1924C5.66849 14.6972 6.44095 14.9269 7.39151 15.0374C8.31818 15.1451 9.47779 15.1451 10.951 15.1451H11.4406C12.7152 15.1451 13.7187 15.1451 14.527 15.0633C15.355 14.9796 16.0363 14.8058 16.6493 14.422C16.9401 14.2399 17.2103 14.0268 17.4552 13.7865C17.9713 13.2798 18.2991 12.6578 18.5735 11.8721C18.8414 11.1051 19.0752 10.1293 19.3723 8.88975L19.3896 8.81776C19.5687 8.07037 19.7163 7.45438 19.7734 6.95534C19.8326 6.43742 19.8084 5.94426 19.5499 5.49399C19.4393 5.3014 19.3011 5.1261 19.1396 4.97368C18.7619 4.61731 18.288 4.47888 17.7705 4.41574C17.2719 4.3549 16.6385 4.35492 15.8699 4.35493L2.78927 4.35493L2.03802 1.34993ZM3.70693 8.16348L3.09073 5.59243H15.8298C16.6486 5.59243 17.2059 5.59352 17.6206 5.64413C18.0251 5.69349 18.191 5.78005 18.2902 5.87368C18.3636 5.94296 18.4265 6.02265 18.4767 6.11019C18.5446 6.22849 18.5902 6.40995 18.5439 6.81481C18.4965 7.22989 18.3676 7.77212 18.1768 8.56838C17.8701 9.84805 17.6501 10.7629 17.4052 11.4641C17.1644 12.1534 16.9176 12.5801 16.5882 12.9034C16.4073 13.081 16.2076 13.2385 15.9926 13.3731C15.6015 13.618 15.129 13.7586 14.4025 13.8321C13.6636 13.9068 12.7227 13.9076 11.4068 13.9076H10.9904C9.4692 13.9076 8.38137 13.9066 7.53437 13.8082C6.70302 13.7115 6.17151 13.5271 5.74124 13.2034C5.69843 13.1712 5.65637 13.1381 5.61508 13.1039C5.20009 12.7609 4.89681 12.2871 4.60909 11.5011C4.31596 10.7004 4.06147 9.64276 3.70693 8.16348Z" fill="#333333"/>
<path d="M9.25353 17.1316C9.25353 17.6112 8.86472 18 8.38511 18C7.90549 18 7.51669 17.6112 7.51669 17.1316C7.51669 16.652 7.90549 16.2632 8.38511 16.2632C8.86472 16.2632 9.25353 16.652 9.25353 17.1316Z" fill="#333333"/>
<path d="M14.4641 17.1316C14.4641 17.6112 14.0753 18 13.5956 18C13.116 18 12.7272 17.6112 12.7272 17.1316C12.7272 16.652 13.116 16.2632 13.5956 16.2632C14.0753 16.2632 14.4641 16.652 14.4641 17.1316Z" fill="#333333"/>
</svg>
