<svg width="24" height="24" viewBox="0 0 24 24" fill="none" xmlns="http://www.w3.org/2000/svg">
<g clip-path="url(#clip0_788_682)">
<path fill-rule="evenodd" clip-rule="evenodd" d="M20.1629 4.27402C20.6748 4.338 21.2826 4.52995 21.6345 4.88186C21.6985 4.94585 21.7305 4.97784 21.7945 5.04182C21.8265 5.07381 21.8904 5.13779 21.9224 5.20178C22.2743 5.61767 22.3703 6.12954 22.3703 6.67339C22.3703 7.98505 21.3146 9.45667 20.3228 10.2565C19.2671 11.1202 17.7955 11.888 16.3879 11.888C15.78 11.888 15.1402 11.7921 14.6283 11.4401C14.4684 11.3442 14.3404 11.2162 14.2444 11.0882C14.2124 11.1202 14.2124 11.1522 14.1804 11.1842C14.0525 11.4401 13.9565 11.7281 13.8925 12.016C13.5086 13.4876 13.6366 15.4071 13.5726 16.9427C13.5726 17.3266 13.5406 17.1667 13.6686 17.5506C14.0525 18.8302 14.1485 20.1419 14.2124 21.4855C14.2124 21.9974 14.4684 23.0211 13.6366 23.0211C13.0607 23.0211 12.9968 22.6052 12.9968 22.1254L12.8688 20.2379C12.6768 18.8622 12.5489 17.5825 11.8451 16.3349C11.4932 15.695 11.0453 15.2152 10.3415 15.0232C10.2455 14.9912 10.2455 14.9912 10.1495 15.0232L10.1175 15.0552C10.0855 15.1192 10.0855 15.1832 10.0535 15.2472C9.66963 16.3669 8.35797 16.8787 7.27026 16.8787C5.47872 16.8787 3.23931 16.015 2.08761 14.6073C1.86367 14.3514 1.67172 14.1274 1.47977 13.8395C0.615996 12.3359 0.871929 10.6404 2.63147 10.0325C2.69545 10.0005 2.75944 10.0005 2.82342 9.96853C2.79143 9.84057 2.79143 9.74459 2.75944 9.61662C2.72744 9.3287 2.69545 9.04078 2.69545 8.75285C2.69545 7.4092 3.49524 6.32149 4.90288 6.32149C5.28678 6.32149 5.70267 6.44945 6.05457 6.60941C6.18254 6.67339 6.37449 6.76937 6.50246 6.86534C6.91835 6.32149 7.46221 6.16153 8.16602 6.16153C9.7976 6.16153 10.9493 8.36895 11.2692 9.7126C11.6211 11.0882 11.6211 12.5599 11.0133 13.8715C11.4932 14.0315 11.941 14.4154 12.2929 14.7993L12.3569 13.4236C12.4529 12.5279 12.5169 11.888 12.8048 11.0243C12.9648 10.5124 13.0607 10.4164 13.2847 10.1285C12.9328 9.84057 12.6768 9.48866 12.4529 9.13675C12.3569 8.97679 12.2929 8.81683 12.229 8.65688C11.7811 7.72912 11.7171 6.76937 11.7171 5.74564C11.7171 4.49796 12.229 2.70643 13.2207 1.90664C13.6046 1.61871 14.0525 1.36278 14.5643 1.36278C15.3002 1.36278 15.4281 1.49075 15.908 1.84266C16.068 1.74668 16.2599 1.58672 16.4199 1.49075C16.7718 1.26681 17.1557 1.10685 17.5716 1.01087L17.6036 0.978882H18.2114H18.2434C18.8192 1.07486 19.2671 1.42676 19.619 1.90664C20.0989 2.61046 20.1629 3.41025 20.1629 4.21004V4.27402ZM2.24757 12.3039C2.24757 12.9118 2.91939 13.7755 3.36728 14.1274C4.39101 14.9272 5.63868 15.6311 6.98233 15.6311C7.97407 15.6311 9.25374 15.3751 8.86984 14.0955C8.83785 13.9675 8.77386 13.8715 8.70988 13.7435C7.97407 12.2719 5.76665 11.1522 4.16707 11.1522C3.30329 11.1522 2.24757 11.2802 2.24757 12.3359V12.3039ZM6.79038 10.4804C6.79038 10.4804 6.82237 10.4804 6.82237 10.5124C7.39822 10.7683 8.23001 11.2482 8.67789 11.7281C8.96581 12.016 9.28573 12.3039 9.50967 12.6558C9.63764 12.8798 9.82959 13.1357 9.92556 13.3916C10.6614 11.7921 10.1175 8.84882 8.80586 7.7931C7.36623 6.6414 6.75839 8.75285 6.75839 9.84057V10.4804H6.79038ZM5.54271 10.0645C5.54271 9.55264 5.60669 9.04077 5.70267 8.5609C5.73466 8.36895 5.83063 8.177 5.89462 7.98505C5.79864 7.95306 5.73466 7.88908 5.67067 7.85708C5.47872 7.76111 5.25478 7.69713 5.03084 7.66513C4.8069 7.63314 4.58296 7.63314 4.423 7.76111C4.23105 7.88908 4.10308 8.08103 4.0391 8.30497C4.00711 8.40094 3.97512 8.49692 3.97512 8.59289C3.91113 9.10476 4.0391 9.42467 4.10308 9.87256C4.71093 9.87256 5.03084 9.93654 5.5747 10.0645H5.54271ZM16.4519 10.6404C17.9555 10.5764 19.715 9.42467 20.5468 8.20899C20.9307 7.63314 21.5385 6.38547 20.8347 5.84161C20.1949 5.32974 19.0752 5.58568 18.3714 5.84161C17.9235 6.00157 17.3796 6.32149 16.9637 6.57742C16.8358 6.67339 16.6758 6.76937 16.5478 6.89734C16.4838 6.96132 16.4199 7.0253 16.3559 7.08928C15.6841 7.63314 14.6283 9.10476 15.0122 10.0325C15.2362 10.5764 15.844 10.6723 16.3559 10.6723H16.4519V10.6404ZM13.7646 8.88082C13.9245 8.20899 14.3084 7.44119 14.7243 6.99331C15.0442 6.60941 15.3641 6.2575 15.748 5.93759C15.812 5.8736 15.876 5.80962 15.972 5.74564C16.0999 5.64966 16.2279 5.55369 16.3559 5.45771C16.3239 5.00983 16.1959 4.52995 16.068 4.14605C15.812 3.47423 15.1402 2.25855 14.2444 2.80241C14.1804 2.86639 14.0205 2.96236 13.9565 3.05834C12.9008 4.37 12.8048 6.51344 13.3487 8.04903C13.4127 8.24098 13.5726 8.59289 13.7646 8.84882V8.88082ZM16.8038 2.8344C16.9637 3.15431 17.1557 3.50622 17.2836 3.85813C17.3796 4.14605 17.4436 4.49796 17.5076 4.81788C17.9235 4.62593 18.4993 4.43398 18.9152 4.37C18.9152 3.89012 18.9152 3.47423 18.7553 3.02635C18.6273 2.73842 18.3714 2.32253 18.0194 2.32253C17.3796 2.32253 17.2197 2.54647 16.8038 2.8344Z" fill="#333333"/>
</g>
<defs>
<clipPath id="clip0_788_682">
<rect width="21.4024" height="22" fill="white" transform="translate(0.999897 1)"/>
</clipPath>
</defs>
</svg>
