<svg width="14" height="14" viewBox="0 0 14 14" fill="none" xmlns="http://www.w3.org/2000/svg">
<path fill-rule="evenodd" clip-rule="evenodd" d="M1.55545 0.266871C1.19962 -0.088957 0.622706 -0.0889569 0.266878 0.266871C-0.0889495 0.622699 -0.0889492 1.19961 0.266879 1.55544L5.48954 6.7781L0.266871 12.0008C-0.088957 12.3566 -0.0889569 12.9335 0.266871 13.2893C0.622699 13.6452 1.19961 13.6452 1.55544 13.2893L6.7781 8.06666L12.0007 13.2893C12.3565 13.6451 12.9335 13.6451 13.2893 13.2893C13.6451 12.9334 13.6451 12.3565 13.2893 12.0007L8.06667 6.7781L13.2893 1.55549C13.6451 1.19967 13.6451 0.622754 13.2893 0.266927C12.9334 -0.0889012 12.3565 -0.0889009 12.0007 0.266927L6.7781 5.48953L1.55545 0.266871Z" fill="white"/>
</svg>
