<svg width="19" height="18" viewBox="0 0 19 18" fill="none" xmlns="http://www.w3.org/2000/svg">
<path fill-rule="evenodd" clip-rule="evenodd" d="M8.26581 0C3.95799 0 0.46582 3.49217 0.46582 7.79999C0.46582 12.1078 3.95799 15.6 8.26581 15.6C12.5736 15.6 16.0658 12.1078 16.0658 7.79999C16.0658 3.49217 12.5736 0 8.26581 0ZM1.66582 7.79999C1.66582 4.15491 4.62073 1.2 8.26581 1.2C11.9109 1.2 14.8658 4.15491 14.8658 7.79999C14.8658 11.4451 11.9109 14.4 8.26581 14.4C4.62073 14.4 1.66582 11.4451 1.66582 7.79999Z" fill="#333333"/>
<path d="M15.0901 13.7758C14.8558 13.5415 14.4759 13.5415 14.2416 13.7758C14.0073 14.0101 14.0073 14.39 14.2416 14.6243L17.4415 17.8243C17.6758 18.0586 18.0557 18.0586 18.29 17.8243C18.5243 17.59 18.5243 17.2101 18.29 16.9757L15.0901 13.7758Z" fill="#333333"/>
</svg>
