<svg width="22" height="20" viewBox="0 0 22 20" fill="none" xmlns="http://www.w3.org/2000/svg">
<path d="M9.40635 11.3157C9.02666 11.3157 8.71885 11.6235 8.71885 12.0032C8.71885 12.3829 9.02666 12.6907 9.40635 12.6907H14.9064C15.286 12.6907 15.5939 12.3829 15.5939 12.0032C15.5939 11.6235 15.286 11.3157 14.9064 11.3157H9.40635Z" fill="#333333"/>
<path fill-rule="evenodd" clip-rule="evenodd" d="M1.82332 0.836502C1.73123 0.468143 1.35797 0.244182 0.989608 0.336272C0.621249 0.428362 0.397289 0.801629 0.489379 1.16999L1.45348 5.02638L2.35072 8.77005C2.73223 10.3619 3.03253 11.6149 3.38888 12.5883C3.75441 13.5868 4.20267 14.3619 4.92186 14.9564C4.98392 15.0077 5.04716 15.0575 5.11151 15.1059C5.85718 15.6668 6.71546 15.922 7.77164 16.0448C8.80128 16.1644 10.0897 16.1644 11.7267 16.1644H12.2706C13.6869 16.1644 14.8018 16.1644 15.7 16.0736C16.62 15.9806 17.3769 15.7875 18.0581 15.361C18.3812 15.1587 18.6814 14.922 18.9535 14.6549C19.527 14.0919 19.8912 13.4007 20.196 12.5278C20.4937 11.6755 20.7535 10.5914 21.0836 9.21408L21.1028 9.13409C21.3019 8.30366 21.4659 7.61922 21.5293 7.06474C21.5951 6.48926 21.5682 5.94131 21.281 5.44101C21.1581 5.22703 21.0045 5.03224 20.825 4.86289C20.4055 4.46693 19.8788 4.31311 19.3039 4.24296C18.7499 4.17536 18.0461 4.17537 17.1921 4.17539L2.65805 4.17539L1.82332 0.836502ZM3.67767 8.40711L2.99301 5.55039H17.1475C18.0573 5.55039 18.6766 5.55161 19.1373 5.60783C19.5868 5.66267 19.7711 5.75886 19.8813 5.86289C19.9629 5.93987 20.0327 6.02841 20.0885 6.12567C20.164 6.25712 20.2146 6.45874 20.1632 6.90859C20.1105 7.36979 19.9673 7.97227 19.7553 8.85701C19.4145 10.2789 19.17 11.2954 18.8979 12.0744C18.6304 12.8403 18.3561 13.3145 17.9902 13.6737C17.7891 13.8711 17.5673 14.0461 17.3284 14.1956C16.8938 14.4677 16.3688 14.624 15.5617 14.7056C14.7407 14.7886 13.6951 14.7894 12.233 14.7894H11.7704C10.0802 14.7894 8.87149 14.7883 7.93038 14.679C7.00666 14.5716 6.41609 14.3666 5.93801 14.0071C5.89045 13.9713 5.84371 13.9344 5.79784 13.8965C5.33673 13.5154 4.99976 12.9889 4.68007 12.1156C4.35437 11.2259 4.07161 10.0508 3.67767 8.40711Z" fill="#333333"/>
<path d="M9.84056 18.3717C9.84056 18.9046 9.40855 19.3366 8.87564 19.3366C8.34274 19.3366 7.91073 18.9046 7.91073 18.3717C7.91073 17.8388 8.34274 17.4068 8.87564 17.4068C9.40855 17.4068 9.84056 17.8388 9.84056 18.3717Z" fill="#333333"/>
<path d="M15.63 18.3717C15.63 18.9046 15.198 19.3366 14.6651 19.3366C14.1322 19.3366 13.7002 18.9046 13.7002 18.3717C13.7002 17.8388 14.1322 17.4068 14.6651 17.4068C15.198 17.4068 15.63 17.8388 15.63 18.3717Z" fill="#333333"/>
</svg>
