<svg width="16" height="21" viewBox="0 0 16 21" fill="none" xmlns="http://www.w3.org/2000/svg">
<path fill-rule="evenodd" clip-rule="evenodd" d="M8.35265 0.153931C5.79328 0.153931 3.7185 2.22871 3.7185 4.78808C3.7185 7.34745 5.79328 9.42222 8.35265 9.42222C10.912 9.42222 12.9868 7.34745 12.9868 4.78808C12.9868 2.22871 10.912 0.153931 8.35265 0.153931ZM5.18192 4.78808C5.18192 3.03693 6.6015 1.61735 8.35265 1.61735C10.1038 1.61735 11.5234 3.03693 11.5234 4.78808C11.5234 6.53922 10.1038 7.95881 8.35265 7.95881C6.6015 7.95881 5.18192 6.53922 5.18192 4.78808Z" fill="#333333"/>
<path fill-rule="evenodd" clip-rule="evenodd" d="M5.42582 10.8856C2.86645 10.8856 0.791672 12.9604 0.791672 15.5198C0.791672 18.0792 2.86645 20.1539 5.42582 20.1539H11.2795C13.8388 20.1539 15.9136 18.0792 15.9136 15.5198C15.9136 12.9604 13.8388 10.8856 11.2795 10.8856H5.42582ZM2.25509 15.5198C2.25509 13.7686 3.67467 12.3491 5.42582 12.3491H11.2795C13.0306 12.3491 14.4502 13.7686 14.4502 15.5198C14.4502 17.2709 13.0306 18.6905 11.2795 18.6905H5.42582C3.67467 18.6905 2.25509 17.2709 2.25509 15.5198Z" fill="#333333"/>
</svg>
