<svg width="23" height="21" viewBox="0 0 23 21" fill="none" xmlns="http://www.w3.org/2000/svg">
<path d="M5.41993 19.5657L5.12137 20.2537L5.41993 19.5657ZM2.71395 16.7309L2.01648 17.0067L2.71395 16.7309ZM19.9527 16.7309L20.6502 17.0067L19.9527 16.7309ZM17.2468 19.5657L17.5453 20.2537L17.2468 19.5657ZM2.33334 9.46448L3.0804 9.53085L3.11711 9.11773L2.78671 8.86702L2.33334 9.46448ZM18.8333 4.96446V4.21446H18.8333L18.8333 4.96446ZM12.1011 3.85355L12.6314 4.38388L12.1011 3.85355ZM14.2224 1.73223L14.7528 2.26256L14.2224 1.73223ZM17.758 1.73223L17.2276 2.26256L17.758 1.73223ZM18.0168 4.96445L18.0169 5.71445L18.3996 5.71442L18.6242 5.40446L18.0168 4.96445ZM10.7224 3.85357L10.1921 4.3839L10.7224 3.85357ZM8.60112 1.73225L8.07079 2.26258L8.60112 1.73225ZM5.06559 1.73225L5.59592 2.26258L5.06559 1.73225ZM11.3333 18.9645H12.0833H11.3333ZM2.30087 9.43983L1.84073 10.0321L2.30087 9.43983ZM20.2687 9.51158L19.8376 8.89787L20.2687 9.51158ZM9.83334 19.2145C8.65774 19.2145 7.81539 19.214 7.15104 19.1665C6.49414 19.1196 6.06797 19.0294 5.71848 18.8777L5.12137 20.2537C5.69074 20.5008 6.30642 20.61 7.04409 20.6627C7.77431 20.7149 8.67924 20.7145 9.83334 20.7145V19.2145ZM1.58338 12.1073C1.58338 13.3179 1.583 14.2616 1.63252 15.0221C1.68244 15.7887 1.78535 16.4221 2.01648 17.0067L3.41141 16.4551C3.26194 16.0771 3.17456 15.619 3.12935 14.9246C3.08374 14.2242 3.08338 13.3375 3.08338 12.1073H1.58338ZM5.71848 18.8777C4.68239 18.4281 3.84852 17.5607 3.41141 16.4551L2.01648 17.0067C2.59431 18.4681 3.70719 19.6401 5.12137 20.2537L5.71848 18.8777ZM19.5833 12.1073C19.5833 13.3374 19.583 14.2242 19.5374 14.9246C19.4921 15.619 19.4048 16.0771 19.2553 16.4551L20.6502 17.0067C20.8813 16.4221 20.9843 15.7887 21.0342 15.0221C21.0837 14.2616 21.0833 13.3178 21.0833 12.1073H19.5833ZM12.8333 20.7145C13.9875 20.7145 14.8924 20.7149 15.6226 20.6627C16.3603 20.61 16.9759 20.5008 17.5453 20.2537L16.9482 18.8777C16.5987 19.0294 16.1725 19.1196 15.5156 19.1665C14.8513 19.214 14.0089 19.2145 12.8333 19.2145V20.7145ZM19.2553 16.4551C18.8182 17.5607 17.9843 18.4281 16.9482 18.8777L17.5453 20.2537C18.9595 19.6401 20.0724 18.4681 20.6502 17.0067L19.2553 16.4551ZM3.08338 12.1073C3.08338 10.6341 3.01511 10.2657 3.0804 9.53085L1.58629 9.3981C1.51411 10.2105 1.58338 10.8214 1.58338 12.1073H3.08338ZM18.8333 5.71446C19.7998 5.71446 20.5833 6.49796 20.5833 7.46446H22.0833C22.0833 5.66954 20.6283 4.21446 18.8333 4.21446V5.71446ZM3.83334 4.21446C2.03842 4.21446 0.583344 5.66954 0.583344 7.46446H2.08334C2.08334 6.49796 2.86685 5.71446 3.83334 5.71446V4.21446ZM12.6314 4.38388L14.7528 2.26256L13.6921 1.2019L11.5708 3.32322L12.6314 4.38388ZM14.7528 2.26256C15.4362 1.57915 16.5442 1.57915 17.2276 2.26256L18.2883 1.2019C17.0191 -0.067301 14.9613 -0.067301 13.6921 1.2019L14.7528 2.26256ZM11.5708 3.32322C11.2572 3.63678 10.778 4.14706 10.6095 4.76812L12.0572 5.16083C12.1095 4.96806 12.306 4.70934 12.6314 4.38388L11.5708 3.32322ZM17.2276 2.26256C17.8436 2.87851 17.9048 3.84078 17.4095 4.52443L18.6242 5.40446C19.5451 4.13337 19.4336 2.34725 18.2883 1.2019L17.2276 2.26256ZM11.2528 3.32324L9.13145 1.20192L8.07079 2.26258L10.1921 4.3839L11.2528 3.32324ZM9.13145 1.20192C7.86225 -0.0672877 5.80446 -0.0672877 4.53526 1.20192L5.59592 2.26258C6.27934 1.57916 7.38738 1.57916 8.07079 2.26258L9.13145 1.20192ZM10.1921 4.3839C10.3932 4.58497 10.5223 4.83942 10.6095 5.16083L12.0572 4.76812C11.9236 4.2757 11.6907 3.76118 11.2528 3.32324L10.1921 4.3839ZM4.53526 1.20192C3.38991 2.34726 3.2785 4.13339 4.19936 5.40447L5.41408 4.52445C4.9188 3.8408 4.97997 2.87853 5.59592 2.26258L4.53526 1.20192ZM10.5833 4.96448L10.5833 18.9645H12.0833L12.0833 4.96448H10.5833ZM4.80672 5.71446L11.3333 5.71448L11.3333 4.21448L4.80672 4.21446L4.80672 5.71446ZM3.83334 9.21446C3.42831 9.21446 3.05732 9.07778 2.761 8.84757L1.84073 10.0321C2.39092 10.4595 3.08342 10.7145 3.83334 10.7145V9.21446ZM2.761 8.84757C2.34729 8.52615 2.08334 8.02631 2.08334 7.46446H0.583344C0.583344 8.50907 1.07701 9.43875 1.84073 10.0321L2.761 8.84757ZM2.78671 8.86702L2.75424 8.84238L1.8475 10.0373L1.87997 10.0619L2.78671 8.86702ZM12.8333 19.2145H11.3333V20.7145H12.8333V19.2145ZM11.3333 19.2145H9.83334V20.7145H11.3333V19.2145ZM10.5833 18.9645L10.5833 19.9645H12.0833L12.0833 18.9645H10.5833ZM18.8333 9.21446H11.3333V10.7145H18.8333V9.21446ZM11.3333 9.21446H3.83334V10.7145H11.3333V9.21446ZM20.5833 7.46446C20.5833 8.05643 20.2901 8.58 19.8376 8.89787L20.6999 10.1253C21.535 9.53862 22.0833 8.56562 22.0833 7.46446H20.5833ZM19.8376 8.89787C19.5535 9.09743 19.2082 9.21446 18.8333 9.21446V10.7145C19.5268 10.7145 20.1715 10.4965 20.6999 10.1253L19.8376 8.89787ZM21.0833 12.1073C21.0833 10.7624 21.0838 10.2318 21.0159 9.44695L19.5215 9.57621C19.5828 10.2851 19.5833 10.7495 19.5833 12.1073H21.0833ZM11.3333 5.71448L17.758 5.71446L17.758 4.21446L11.3333 4.21448L11.3333 5.71448ZM17.758 5.71446L18.0169 5.71445L18.0168 4.21445L17.7579 4.21446L17.758 5.71446ZM17.758 5.71446L18.8333 5.71446L18.8333 4.21446L17.758 4.21446L17.758 5.71446ZM4.80672 4.21446H3.83334V5.71446H4.80672V4.21446ZM3.83334 5.71446L7.58334 5.71447L7.58335 4.21447L3.83335 4.21446L3.83334 5.71446ZM7.58334 5.71447L11.3333 5.71448L11.3333 4.21448L7.58335 4.21447L7.58334 5.71447ZM4.80672 5.71446L7.58334 5.71447L7.58335 4.21447L4.80672 4.21446L4.80672 5.71446ZM11.3333 5.71448L18.0168 5.71445L18.0168 4.21445L11.3333 4.21448L11.3333 5.71448Z" fill="#333333"/>
</svg>
