<svg width="24" height="24" viewBox="0 0 24 24" fill="none" xmlns="http://www.w3.org/2000/svg">
<path d="M18.2667 0.9H18.3073H18.8483H18.8558L18.8633 0.901142C19.3315 0.972511 19.7971 1.23434 20.2095 1.79973L20.2096 1.79983C20.7252 2.50851 20.7572 3.35665 20.7589 4.21037C21.3903 4.23517 22.0133 4.49055 22.3511 4.80391C22.3761 4.82701 22.3975 4.84552 22.4193 4.86444C22.4229 4.86759 22.4265 4.87075 22.4302 4.87394C22.4559 4.89625 22.4824 4.9196 22.5134 4.94977C22.5474 4.98281 22.6169 5.05653 22.647 5.09224C22.647 5.09225 22.647 5.09226 22.647 5.09227L22.5705 5.15666C22.8884 5.534 22.9999 5.99602 22.9999 6.49963C22.9999 7.77129 21.8936 9.23162 20.9294 9.98629L18.2667 0.9ZM18.2667 0.9L18.2562 0.910273M18.2667 0.9L18.2562 0.910273M13.9216 17.6684C13.8842 17.5402 13.8577 17.4589 13.8395 17.4029L13.8389 17.4012C13.8199 17.3428 13.8128 17.3201 13.8095 17.3004C13.8066 17.2834 13.8061 17.2664 13.8084 17.2194C13.8089 17.2091 13.8096 17.1976 13.8102 17.1846C13.8126 17.1399 13.8159 17.0783 13.8186 16.9909L13.8257 17.6965M13.9216 17.6684L13.8257 17.6965M13.9216 17.6684C13.9216 17.6684 13.9216 17.6683 13.9216 17.6682L13.8257 17.6965M13.9216 17.6684C14.307 18.9768 14.4374 20.2921 14.4803 21.6658L14.4803 21.6658C14.4827 21.745 14.4918 21.8378 14.502 21.941C14.5056 21.9782 14.5094 22.0167 14.5131 22.0564C14.5266 22.2027 14.5377 22.3615 14.529 22.5081C14.5205 22.6526 14.492 22.799 14.4152 22.9114C14.3333 23.031 14.205 23.1 14.0289 23.1C13.9194 23.1 13.8249 23.0839 13.746 23.0456C13.665 23.0063 13.6067 22.9466 13.567 22.8711C13.4929 22.7304 13.4843 22.5342 13.4857 22.3164M13.8257 17.6965C14.2077 18.9934 14.3375 20.2992 14.3803 21.6689C14.3829 21.7518 14.3925 21.8496 14.4028 21.954C14.448 22.4132 14.5057 23 14.0289 23C13.627 23 13.5827 22.7608 13.5858 22.3137M13.4857 22.3164L13.4859 22.3198L13.5858 22.3137M13.4857 22.3164L13.367 20.3773C13.36 20.3257 13.353 20.2743 13.3461 20.2232C13.1539 18.7992 12.9893 17.5796 12.2766 16.3349L12.2765 16.3348C11.8783 15.6376 11.3791 15.134 10.6008 14.9305C10.512 14.9077 10.4644 14.9007 10.4255 14.9048C10.3901 14.9085 10.352 14.9226 10.2874 14.9659L10.287 14.9661C10.2137 15.0147 10.2031 15.0363 10.1958 15.0552C10.1904 15.0695 10.1865 15.0854 10.1794 15.1144C10.1786 15.1175 10.1778 15.1208 10.1769 15.1243C10.1688 15.1576 10.158 15.1993 10.1397 15.2516L10.1397 15.2517C9.9523 15.784 9.53116 16.1783 9.0242 16.4382C8.51723 16.6982 7.91725 16.8279 7.35601 16.8279C6.43428 16.8279 5.3923 16.6047 4.43532 16.213C3.47886 15.8215 2.59945 15.2584 2.00856 14.5722L2.00845 14.5721C1.96255 14.5186 1.91235 14.4633 1.86011 14.4058C1.70304 14.2328 1.52749 14.0395 1.39455 13.8133C0.945317 13.0534 0.792134 12.2781 0.975833 11.6144C1.16064 10.9466 1.68094 10.4117 2.53564 10.1276L2.53603 10.1275C2.59248 10.109 2.65071 10.094 2.70342 10.0804C2.71559 10.0772 2.72747 10.0742 2.73896 10.0712C2.77439 10.0619 2.80624 10.0531 2.83469 10.0438C2.82839 9.96895 2.81548 9.89545 2.79961 9.80502C2.7906 9.75368 2.78063 9.69688 2.77037 9.63128C2.73731 9.42004 2.70556 9.13744 2.70556 8.69384C2.70556 8.03957 2.90542 7.45588 3.28099 7.03439C3.65772 6.61159 4.20477 6.35952 4.88214 6.35952C5.31497 6.35952 5.73488 6.50698 6.06018 6.65483C6.22355 6.72908 6.36511 6.80442 6.47378 6.86277C6.48022 6.86623 6.48652 6.86962 6.49269 6.87293C6.53912 6.89788 6.57804 6.91879 6.6101 6.93504C6.61189 6.93595 6.61365 6.93684 6.61536 6.9377C6.82725 6.65131 7.06645 6.46445 7.3416 6.3491C7.63545 6.2259 7.96341 6.18719 8.32936 6.18719C9.14617 6.18719 9.8429 6.74463 10.3713 7.44868C10.902 8.15574 11.28 9.03231 11.4563 9.71929L11.4563 9.71931C11.8335 11.1907 11.8057 12.7085 11.135 14.0285C11.4597 14.0939 11.7781 14.2821 12.0599 14.5089C12.3415 14.7354 12.5949 15.0072 12.7924 15.2543L12.8747 13.5069L12.875 13.5003L12.8752 13.5003C12.8897 13.3717 12.9026 13.2515 12.9148 13.1374C12.9921 12.4144 13.0435 11.9341 13.3321 11.0832L13.3321 11.0832C13.4547 10.722 13.5366 10.5547 13.6288 10.4234C13.6663 10.3699 13.7053 10.3229 13.7459 10.2739C13.7538 10.2643 13.7619 10.2546 13.7699 10.2448C13.8053 10.2018 13.844 10.1537 13.8884 10.0932M13.4857 22.3164C13.4857 22.3153 13.4858 22.3141 13.4858 22.313L13.5858 22.3137M13.5858 22.3137L13.4666 20.3675C13.4591 20.3127 13.4518 20.2582 13.4445 20.2039L13.8884 10.0932M13.8884 10.0932C13.495 9.81254 13.1935 9.42983 12.9447 9.03046L12.9445 9.0301C12.8972 8.95346 12.8582 8.87027 12.8224 8.78956C12.8129 8.76823 12.8037 8.74721 12.7947 8.72643C12.7685 8.6667 12.7433 8.60906 12.7153 8.55249L12.715 8.55179C12.2705 7.63589 12.2037 6.65972 12.2037 5.64393C12.2037 4.96628 12.3468 4.20147 12.6081 3.5125C12.8689 2.82499 13.2513 2.20265 13.7378 1.82024L13.8884 10.0932ZM18.2562 0.910273C17.7841 0.983797 17.351 1.20428 17.0234 1.4077C16.8552 1.51214 16.713 1.61326 16.6068 1.68917L16.5966 1.69647C16.5477 1.73146 16.508 1.75981 16.4767 1.78079C16.4717 1.78412 16.4671 1.78718 16.4627 1.78997C16.4098 1.75413 16.3613 1.71944 16.3135 1.68529C16.2853 1.66514 16.2574 1.64519 16.229 1.62529C16.1396 1.56271 16.0489 1.50338 15.9435 1.45296C15.7302 1.35088 15.4683 1.29071 15.0435 1.29071C14.5154 1.29071 14.0255 1.59348 13.7378 1.8202L18.2562 0.910273ZM9.07735 7.55274L9.07733 7.55273C8.69595 7.25229 8.36531 7.15322 8.08725 7.18059C7.80929 7.20795 7.56414 7.36361 7.3576 7.61314C6.94128 8.11612 6.70575 8.97399 6.70575 9.76494V10.4082C6.70575 10.4553 6.70853 10.4826 6.71234 10.4991C6.7141 10.5067 6.71573 10.5104 6.71646 10.5119L6.71705 10.5129L6.7172 10.5131C6.71801 10.5139 6.72262 10.5182 6.74376 10.5276C6.75365 10.532 6.76485 10.5366 6.77937 10.5425L6.78108 10.5432C6.79593 10.5493 6.81326 10.5563 6.83237 10.5647L6.83257 10.5648C7.4227 10.8255 8.29199 11.3288 8.74262 11.7639M9.07735 7.55274L8.67316 11.8358M9.07735 7.55274C9.76239 8.09213 10.3018 9.17493 10.5349 10.3561M9.07735 7.55274L10.5349 10.3561M8.74262 11.7639L8.67316 11.8358M8.74262 11.7639C8.74257 11.7639 8.74253 11.7638 8.74248 11.7638L8.67316 11.8358M8.74262 11.7639C8.75254 11.7734 8.76254 11.7831 8.77262 11.7927C9.04409 12.0536 9.36817 12.3651 9.58859 12.6887L9.58891 12.6892L9.5903 12.6913C9.68242 12.8282 9.8131 13.0225 9.92486 13.2307C10.0094 13.3882 10.0868 13.5602 10.1268 13.7262M8.67316 11.8358C8.68221 11.8445 8.6913 11.8533 8.70045 11.8621C8.97412 12.1251 9.29154 12.4302 9.50594 12.745L9.50655 12.7459C9.67569 12.9973 9.96546 13.4281 10.0384 13.7893C10.0812 13.7771 10.096 13.765 10.106 13.7541C10.1135 13.7461 10.1196 13.7376 10.1268 13.7262M10.1268 13.7262C10.1324 13.7174 10.1385 13.7069 10.1463 13.6936C10.1533 13.6817 10.1616 13.6674 10.1721 13.6501L10.2577 13.7017M10.1268 13.7262C10.1368 13.7674 10.1444 13.8083 10.1493 13.8484C10.1873 13.8218 10.2081 13.7863 10.2375 13.736C10.2437 13.7253 10.2504 13.7139 10.2577 13.7017M10.2577 13.7017C11.3273 11.9116 10.5618 8.5943 9.13921 7.47417L10.2577 13.7017ZM10.2577 13.7017L10.1719 13.6504M10.2577 13.7017L10.1719 13.6504M10.5349 10.3561C10.7679 11.5364 10.6891 12.7849 10.1719 13.6504M10.5349 10.3561L10.1719 13.6504M9.15845 14.0542L9.15852 14.0544C9.26424 14.3866 9.26529 14.6561 9.19546 14.8737C9.12578 15.0908 8.98228 15.2664 8.78034 15.4054C8.37197 15.6866 7.73447 15.8108 7.04735 15.8108C5.58524 15.8108 4.24988 15.0907 3.15482 14.2594L3.1548 14.2594C2.91399 14.0767 2.60569 13.7552 2.35805 13.3908C2.10864 13.0237 1.93221 12.6299 1.93221 12.3008C1.93221 12.0078 1.99984 11.7814 2.11261 11.6051C2.22554 11.4286 2.3879 11.2957 2.58754 11.1968C2.99055 10.997 3.53432 10.9405 4.08604 10.9405C4.95274 10.9405 5.98199 11.2378 6.89642 11.7327C7.81157 12.228 8.59823 12.9138 8.99223 13.6792L9.08115 13.6334L8.99201 13.6787C8.99763 13.6898 9.00316 13.7006 9.00859 13.7113C9.06903 13.8297 9.11771 13.9252 9.15845 14.0542ZM16.9034 10.6974L16.9031 10.6959C16.1755 10.6959 15.5955 10.5306 15.3446 9.95391C15.1366 9.47471 15.2863 8.84958 15.6084 8.24742C15.9281 7.64993 16.4024 7.10426 16.7934 6.79989L16.7935 6.79978C16.8409 6.76277 16.8747 6.73023 16.9059 6.69913C16.911 6.69401 16.916 6.68898 16.921 6.684C16.9461 6.6588 16.9698 6.63505 17.0011 6.60748C17.1208 6.50245 17.3091 6.37396 17.4438 6.28217L17.444 6.282C17.8435 6.00794 18.4877 5.66074 18.9491 5.50394C19.3457 5.36976 19.8526 5.24258 20.349 5.21866C20.8472 5.19466 21.3203 5.2753 21.6645 5.54043L21.6646 5.54049C22.0624 5.84628 22.1262 6.31334 22.0204 6.81201C21.9145 7.31093 21.6422 7.81621 21.4067 8.15381L21.4887 8.21102L21.4067 8.15382C20.9594 8.79513 20.246 9.43249 19.4342 9.90935C18.6231 10.3858 17.7234 10.6966 16.9034 10.6974ZM14.6042 7.95088C14.4303 8.30965 14.2886 8.70768 14.2488 9.08607C14.1456 8.9805 14.0381 8.83546 13.9365 8.6725C13.7881 8.43455 13.6609 8.17232 13.5862 7.97379C12.9749 6.34025 13.1198 4.09106 14.2374 2.73793L14.1603 2.67425L14.2372 2.73812C14.2661 2.70329 14.3255 2.648 14.3931 2.59183C14.46 2.53621 14.5271 2.48625 14.5685 2.46096L14.5689 2.46072C14.911 2.24932 15.2239 2.24419 15.5064 2.36728C15.7952 2.49311 16.0616 2.75744 16.2899 3.10232C16.7308 3.76862 17.0037 4.69692 17.0221 5.35558C16.9483 5.3878 16.8733 5.4365 16.8066 5.48383C16.7601 5.51683 16.7145 5.55155 16.6725 5.58372C16.6661 5.5886 16.6599 5.5934 16.6537 5.59813C16.6187 5.62502 16.587 5.64934 16.5586 5.66999L16.5583 5.67022C16.5001 5.71282 16.4685 5.73911 16.4388 5.76502C16.4328 5.77017 16.4271 5.77519 16.4214 5.78024C16.3992 5.79978 16.3765 5.81976 16.3392 5.84978L16.3385 5.85033C15.9351 6.1809 15.6129 6.49569 15.2711 6.9017L15.271 6.90177C15.0677 7.14371 14.8107 7.5247 14.6042 7.95088ZM17.1231 5.42555C17.0016 5.45713 16.8441 5.57803 16.7148 5.67733C16.6798 5.70416 16.6469 5.72941 16.6174 5.7509C16.5504 5.79991 16.5215 5.82541 16.4879 5.85496C16.4655 5.87467 16.441 5.89618 16.4019 5.92768C16.0031 6.25451 15.6853 6.56499 15.3476 6.9661L17.1231 5.42555ZM18.7779 4.49305C18.4807 4.59268 18.1961 4.70747 17.986 4.80663C17.9355 4.5922 17.8971 4.41864 17.8647 4.27227C17.8056 4.00505 17.7665 3.82845 17.7107 3.65925C17.621 3.38722 17.4868 3.12779 17.1655 2.53629C17.2692 2.46568 17.3595 2.39818 17.4422 2.33629C17.4515 2.32933 17.4607 2.32244 17.4699 2.31562C17.5804 2.23312 17.6769 2.16255 17.7802 2.1038C17.9814 1.9893 18.2155 1.91559 18.6252 1.91559C18.8505 1.91559 19.0435 2.02303 19.2011 2.18094C19.3593 2.33933 19.4755 2.5428 19.5436 2.71657C19.723 3.17749 19.7215 3.53853 19.7191 4.1274C19.719 4.17027 19.7188 4.21434 19.7187 4.25975C19.4367 4.29453 19.0967 4.38621 18.7779 4.49305ZM5.86433 8.37892C5.76737 8.72095 5.67372 9.24046 5.66587 10.1552C5.59419 10.1387 5.5279 10.1233 5.46591 10.1089C5.20446 10.048 5.01938 10.005 4.82788 9.97617C4.57894 9.93871 4.31885 9.92504 3.86314 9.92357C3.85732 9.88912 3.85007 9.85152 3.84218 9.81194C3.83688 9.78535 3.83123 9.75764 3.82534 9.72875C3.81332 9.66976 3.80031 9.60588 3.7872 9.53675C3.74834 9.33187 3.71059 9.09044 3.7043 8.84135C3.69166 8.34096 3.80569 7.83244 4.26595 7.51979C4.58742 7.30173 4.99515 7.34667 5.36493 7.46729C5.54731 7.52679 5.71384 7.60257 5.8466 7.66681C5.8782 7.6821 5.91178 7.69867 5.94268 7.71391C5.97136 7.72806 5.99773 7.74108 6.01803 7.75085C6.03088 7.75704 6.04398 7.76328 6.05692 7.76919C6.04804 7.83058 6.02931 7.89223 6.00238 7.96859C5.99426 7.99158 5.98541 8.0159 5.97599 8.04176C5.94312 8.13204 5.90338 8.24118 5.86433 8.37892Z" fill="#333333" stroke="#333333" stroke-width="0.2"/>
</svg>
