<svg width="15" height="14" viewBox="0 0 15 14" fill="none" xmlns="http://www.w3.org/2000/svg">
<path fill-rule="evenodd" clip-rule="evenodd" d="M1.70882 0.292854C1.31824 -0.0976181 0.684995 -0.0976181 0.294419 0.292854C-0.0961574 0.683326 -0.0961574 1.31641 0.294419 1.70688L5.58633 6.99737L0.292932 12.2894C-0.0976439 12.6798 -0.0976443 13.3129 0.292932 13.7034C0.683509 14.0939 1.31676 14.0939 1.70733 13.7034L7.00073 8.4114L12.2941 13.7034C12.6847 14.0939 13.318 14.0939 13.7085 13.7034C14.0991 13.3129 14.0991 12.6798 13.7085 12.2894L8.41513 6.99737L13.707 1.70688C14.0976 1.31641 14.0976 0.683326 13.707 0.292854C13.3165 -0.0976179 12.6832 -0.0976179 12.2926 0.292854L7.00073 5.58335L1.70882 0.292854Z" fill="#FD517E"/>
</svg>
