<svg width="16" height="16" viewBox="0 0 16 16" fill="none" xmlns="http://www.w3.org/2000/svg">
<path fill-rule="evenodd" clip-rule="evenodd" d="M4.81487 0.595551C3.95069 -0.198517 2.62237 -0.198517 1.75819 0.595551C1.7228 0.628071 1.68502 0.665862 1.63596 0.714934L0.898764 1.45213C0.156953 2.19394 -0.154453 3.26333 0.073124 4.28743C1.36433 10.0979 5.90215 14.6357 11.7126 15.9269C12.7367 16.1545 13.8061 15.843 14.5479 15.1012L15.285 14.3641C15.3341 14.315 15.3719 14.2772 15.4044 14.2418C16.1985 13.3776 16.1985 12.0493 15.4044 11.1851C15.3719 11.1497 15.3341 11.1119 15.285 11.0628L14.0782 9.85598C13.2403 9.01808 11.9749 8.77844 10.8886 9.25194C10.2667 9.52301 9.5423 9.38582 9.0626 8.90612L7.09388 6.9374C6.61418 6.4577 6.47699 5.73328 6.74806 5.11139C7.22156 4.02513 6.98192 2.75975 6.14402 1.92185L4.93712 0.714946C4.88805 0.665869 4.85027 0.628074 4.81487 0.595551ZM2.59183 1.5028C2.98464 1.14186 3.58842 1.14186 3.98123 1.5028C3.99479 1.51525 4.01256 1.53283 4.07505 1.59531L5.2728 2.79307C5.7525 3.27276 5.88969 3.99719 5.61861 4.61907C5.14511 5.70533 5.38475 6.97071 6.22266 7.80862L8.19138 9.77734C9.02929 10.6152 10.2947 10.8549 11.3809 10.3814C12.0028 10.1103 12.7272 10.2475 13.2069 10.7272L14.4047 11.925C14.4672 11.9874 14.4847 12.0052 14.4972 12.0188C14.8581 12.4116 14.8581 13.0154 14.4972 13.4082C14.4847 13.4217 14.4672 13.4395 14.4047 13.502L13.6767 14.23C13.2327 14.674 12.5927 14.8603 11.9799 14.7241C6.63642 13.5367 2.4633 9.36359 1.27587 4.02015C1.13968 3.40727 1.32604 2.76729 1.76998 2.32335L2.49802 1.59531C2.5605 1.53283 2.57827 1.51525 2.59183 1.5028Z" fill="#1E1E1E"/>
</svg>
